<?xml version="1.0" encoding="utf-8"?>
<!-- Generator: Adobe Illustrator 25.2.1, SVG Export Plug-In . SVG Version: 6.00 Build 0)  -->
<svg version="1.1" id="Capa_1" xmlns="http://www.w3.org/2000/svg" xmlns:xlink="http://www.w3.org/1999/xlink" x="0px" y="0px"
	 viewBox="0 0 8192 8192" style="enable-background:new 0 0 8192 8192;" xml:space="preserve">
<style type="text/css">
	.st0{fill-rule:evenodd;clip-rule:evenodd;fill:#333333;}
	.st1{fill-rule:evenodd;clip-rule:evenodd;fill:#4D4D4D;}
	.st2{fill-rule:evenodd;clip-rule:evenodd;fill:#F2F2F2;}
	.st3{fill-rule:evenodd;clip-rule:evenodd;fill:#808080;}
	.st4{fill-rule:evenodd;clip-rule:evenodd;fill:#FDDA25;}
	.st5{fill-rule:evenodd;clip-rule:evenodd;fill:#EDC211;}
	.st6{fill-rule:evenodd;clip-rule:evenodd;fill:#E6E6E6;}
	.st7{fill-rule:evenodd;clip-rule:evenodd;fill:#666666;}
	.st8{fill:#FFFFFF;}
</style>
<g>
	<path d="M2031.7,4553.7c10,0,18,2.9,24.5,9.3c6.4,6.1,9.3,13.2,9.3,20.9c0,9.3-4.2,18-12.9,26.1c-8.7,8.4-18.4,12.6-30,12.6
		c-10,0-18-2.9-24.5-9c-6.1-6.1-9.3-12.9-9.3-21.3c0-10.3,4.2-19,12.6-26.7C2010.4,4557.5,2020.1,4553.7,2031.7,4553.7 M2032,4677.3
		l-44.4,275h-73.4l72.1-275H2032 M2031.7,4544c-13.8,0-26.1,4.8-36.4,14.5c-10.3,9.7-15.8,20.9-15.8,33.8c0,11,4.2,20.3,12.2,28
		c8.1,7.7,18.7,11.9,31.2,11.9c13.8,0,26.1-5.2,36.4-15.1c10.6-10,15.8-21.3,15.8-33.2c0-10.6-4.2-20-12.2-28
		C2054.5,4548.2,2044.2,4544,2031.7,4544L2031.7,4544z M2043.3,4667.7h-64.7l-77.3,294.4h94.4L2043.3,4667.7L2043.3,4667.7z"/>
	<path d="M2497.4,4435.8l-12.6,60.2h-207.1h-7.7l-1.6,7.7l-19.3,91.1l-2.6,11.6h11.9H2414l-12.9,60.2H2241h-7.7l-1.6,7.7
		l-32.5,153.9h-68.6l83.1-392.6H2497.4 M2509,4426.1h-303.1l-87,411.9h88.2l34.1-161.7h167.8l17.1-79.6h-167.5l19.3-91.1h214.8
		L2509,4426.1L2509,4426.1z"/>
	<path d="M2876.5,4435.8l-12.6,60.2h-207.1h-7.7l-1.6,7.7l-17.4,82.5l-2.6,11.6h11.9H2795l-12.9,59.9H2622h-7.7l-1.6,7.7l-19.3,91.5
		l-2.6,11.6h11.9h208.7l-12.6,59.9h-289.2l83.1-392.6L2876.5,4435.8 M2888.4,4426.1h-303.1l-87,411.9h308.9l16.7-79.2h-220.6
		l19.3-91.5h167.8l17.1-79.2h-167.5l17.4-82.5h214.8L2888.4,4426.1L2888.4,4426.1z"/>
	<path d="M3052.6,4435.8l-68,321.1l-2.6,11.6h11.9h179.1l-12.2,59.9H2901l83.1-392.6L3052.6,4435.8 M3064.6,4426.1h-88.2l-87,411.9
		h279.6l16.4-79.2h-191L3064.6,4426.1L3064.6,4426.1z"/>
	<path d="M3399.8,4435.8l-83.1,392.6h-68.6l83.1-392.6H3399.8 M3411.8,4426.1h-88.2l-87,411.9h88.2L3411.8,4426.1L3411.8,4426.1z"/>
	<path d="M3705.8,4427.1c20.6,0,40.3,2.6,58.6,8.1c18,5.5,33.2,11.9,44.8,19.3c11.9,7.7,22.5,15.5,31.2,23.2
		c8.7,7.4,14.8,13.8,18.4,19l1,1.3l-49.3,40.6c-1.9-2.3-5.2-6.1-11.6-12.2c-6.8-6.8-14.5-12.9-22.2-18c-8.4-5.5-19-10.3-32.9-14.5
		c-13.8-4.5-28.3-6.8-43.5-6.8c-45.7,0-86.6,16.7-121.4,49.9c-35.1,33.2-52.8,73.8-52.8,120.5c0,33.5,11.9,62.2,35.1,85.3
		c23.2,22.9,52.8,34.5,87.9,34.5c15.8,0,31.6-2.3,46.4-6.8s27.4-10,37.7-16.1c10-6.1,19-12.2,27.1-18.7c6.4-5.2,11.6-10,15.5-13.8
		l31.9,43.2c-0.6,1-1.6,1.6-2.3,2.6c-1.9,2.3-7.4,7.4-21.3,18.7c-11,9-22.9,17.1-35.1,24.2c-11.9,6.8-28,13.2-47.7,18.7
		c-19.3,5.8-39.6,8.4-60.2,8.4c-51.9,0-96-17.4-131.7-51.9c-35.4-34.5-53.5-75.4-53.5-122.1c0-64.7,24.8-120.8,73.8-166.8
		C3578.3,4450.6,3637.5,4427.1,3705.8,4427.1 M3705.8,4417.4c-71.2,0-132.4,24.2-183.6,72.1c-51.2,48-77,106-77,173.9
		c0,49.3,18.7,92.4,56.4,128.8s83.7,54.8,138.5,54.8c21.6,0,42.5-2.9,63.1-9c20.3-5.8,37-12.6,49.6-19.6
		c12.6-7.1,24.8-15.5,36.4-25.1c11.6-9.3,19-16.1,22.5-20c3.2-3.9,5.8-6.8,7.4-9l-43.8-58.9l-5.2,6.8c-3.5,4.2-9.3,9.3-16.7,15.5
		c-7.4,6.1-16.1,12.2-25.8,18c-9.7,5.8-21.6,11-35.8,15.1s-28.7,6.4-43.5,6.4c-32.5,0-59.6-10.6-81.2-31.9
		c-21.6-21.3-32.2-47.3-32.2-78.3c0-44.1,16.4-82.1,49.6-113.4s71.5-47,115-47c14.2,0,27.7,1.9,40.6,6.1
		c12.9,4.2,23.2,8.7,30.6,13.5c7.4,4.8,14.5,10.6,20.9,16.7c6.4,6.4,10.6,10.6,12.2,13.2c1.9,2.6,3.2,4.5,3.9,6.1l64.7-53.1
		l-6.4-8.7c-3.9-5.5-10.6-12.2-20-20.3c-9.3-8.1-20-16.1-32.2-24.2c-12.2-8.1-28-14.8-47.3-20.6
		C3748,4420.3,3727.4,4417.4,3705.8,4417.4L3705.8,4417.4z"/>
	<path d="M4037.9,4435.8l-83.1,392.6h-68.6l83.1-392.6H4037.9 M4049.8,4426.1h-88.2l-87,411.9h88.2L4049.8,4426.1L4049.8,4426.1z"/>
	<path d="M4298.4,4435.8c49,0,90.5,16.1,123.7,48.3c33.5,32.5,49.9,70.2,49.9,115.3c0,63.1-23.8,117.9-70.5,162
		c-47,44.4-103.4,67-168.1,67h-153l83.1-392.6L4298.4,4435.8 M4161.2,4768.5h11.9h64.7c41.2,0,79.2-16.1,112.7-47.3
		c33.8-31.6,50.9-69.6,50.9-113c0-31.6-10.3-58.3-30.6-79.6c-20.6-21.6-47.3-32.2-79.9-32.2h-63.4h-7.7l-1.6,7.7l-54.1,253.1
		L4161.2,4768.5 M4298.4,4426.1h-143l-87,411.9h164.9c67.3,0,125.6-23.2,174.6-69.6c49-46.4,73.4-102.7,73.4-169.1
		c0-47.3-17.7-88.2-52.8-122.4C4393.8,4443.2,4350.3,4426.1,4298.4,4426.1L4298.4,4426.1z M4173.5,4758.8l54.1-253.1h63.4
		c30,0,54.1,9.7,72.8,29.3c18.7,19.6,28,43.8,28,73.1c0,40.9-15.8,76-47.7,106s-67,44.8-106,44.8H4173.5L4173.5,4758.8z"/>
	<path d="M4779.9,4435.8l71.2,392.6h-71.8l-13.5-88.9l-1.3-8.4h-8.4h-158.8h-5.5l-2.9,4.8l-53.1,92.4H4462l237.4-392.6H4779.9
		 M4625.6,4674.4h16.7h100.2h11.3l-1.6-11.3l-21.3-135.3l-4.2-26.7l-13.5,23.5l-78.9,135.3L4625.6,4674.4 M4788,4426.1h-94
		l-249,411.9h96.6l56-97.3h158.8l14.5,97.3h91.8L4788,4426.1L4788,4426.1z M4642.4,4664.8l78.9-135.3l21.3,135.3H4642.4
		L4642.4,4664.8z"/>
	<path d="M5151.6,4435.8c49,0,90.5,16.1,123.7,48.3c33.5,32.5,49.9,70.2,49.9,115.3c0,63.1-23.8,117.9-70.5,162
		c-47,44.4-103.4,67-168.1,67h-153l83.1-392.6L5151.6,4435.8 M5014.4,4768.5h11.9h64.7c41.2,0,79.2-16.1,112.7-47.3
		c33.8-31.6,50.9-69.6,50.9-113c0-31.6-10.3-58.3-30.6-79.6c-20.6-21.6-47.3-32.2-79.9-32.2h-63.4h-7.7l-1.6,7.7l-54.1,253.1
		L5014.4,4768.5 M5151.6,4426.1h-143l-87,411.9h164.9c67.3,0,125.6-23.2,174.6-69.6c49-46.4,73.4-102.7,73.4-169.1
		c0-47.3-17.7-88.2-52.8-122.4C5246.6,4442.9,5203.4,4426.1,5151.6,4426.1L5151.6,4426.1z M5026.3,4758.8l54.1-253.1h63.4
		c30,0,54.1,9.7,72.8,29.3c18.7,19.6,28,43.8,28,73.1c0,40.9-15.8,76-47.7,106c-31.9,30-67,44.8-106,44.8H5026.3L5026.3,4758.8z"/>
	<path d="M5746.8,4435.8l-12.6,60.2h-207.1h-7.7l-1.6,7.7l-17.4,82.5l-2.6,11.6h11.9h155.6l-12.9,59.9h-160.1h-7.7l-1.6,7.7
		l-19.3,91.5l-2.6,11.6h11.9h208.7l-12.6,59.9h-289.2l83.1-392.6L5746.8,4435.8 M5758.7,4426.1h-303.1l-87,411.9h308.9l16.7-79.2
		h-220.6l19.3-91.5h167.8l17.1-79.2h-167.5l17.4-82.5h214.8L5758.7,4426.1L5758.7,4426.1z"/>
	<path d="M5957.4,4427.1c16.1,0,31.6,1.9,46.4,5.5c14.8,3.9,27.1,8.1,36.4,12.9c9.7,5.2,18,10.3,25.4,15.5c7.4,5.2,11.3,9,13.2,11.3
		l-47.3,40.9c-1-1-2.3-1.9-3.5-3.2c-4.8-4.5-13.8-9.3-28.3-16.1c-14.5-6.4-29.6-10-45.1-10c-21.6,0-39,4.8-51.5,14.2
		c-13.5,10-20.3,23.8-20.3,40.9c0,12.2,5.5,23.2,15.8,32.9c9.3,8.4,20.6,15.5,33.8,21.3c12.2,5.2,25.8,11.3,40.3,18.4
		c14.2,6.8,27.7,14.2,39.6,21.9c11,7.1,20.6,16.7,28.3,28.7c7.4,11.6,11.3,25.4,11.3,40.6c0,41.2-13.8,73.1-42.2,97.6
		c-28.3,24.5-68.9,36.7-120.8,36.7c-18.4,0-36.1-2.3-52.8-6.8c-16.7-4.5-30.9-10-42.2-15.8c-11.3-6.1-21.3-12.6-29.6-19
		c-8.1-6.1-13.8-11.3-17.4-15.1l46.4-39c1.6,1.6,3.9,3.5,5.8,5.5c6.1,5.5,17.4,12.2,35.4,20.6c18,8.4,37,12.6,57,12.6
		c20.9,0,39.6-4.8,55.7-14.5c17.7-10.6,26.7-27.4,26.7-49.6c0-14.2-7.1-26.4-21.3-37c-12.2-9-27.1-17.4-44.1-24.5
		c-16.1-6.8-32.5-14.5-48.6-22.5c-15.1-7.7-28.3-18.7-39-32.5c-10.3-13.2-15.5-28.7-15.5-47c0-36.4,13.2-65.4,39.9-89.2
		C5873.4,4439.3,5910.4,4427.1,5957.4,4427.1 M5957.4,4417.4c-49.3,0-88.6,12.9-117.2,38.3c-29,25.4-43.2,57.7-43.2,96.6
		c0,20.3,5.8,38,17.4,52.8c11.6,14.8,25.8,26.7,42.2,35.1c16.4,8.4,32.9,16.1,49.3,22.9c16.4,6.8,30.6,14.5,42.2,23.2
		c11.6,8.7,17.4,18.4,17.4,29.3c0,18.7-7.4,32.5-22.2,41.2c-14.8,8.7-31.6,13.2-50.9,13.2c-18.4,0-36.1-3.9-52.8-11.6
		c-16.7-7.7-28-14.2-33.2-18.7c-5.2-4.8-9-8.7-11.9-11.9l-60.5,51.2l6.1,7.1c3.9,4.5,10.3,10.3,19,17.1c8.7,6.8,19,13.2,30.9,20
		c11.9,6.4,26.4,12.2,44.1,16.7c17.7,4.8,36.1,7.1,55.4,7.1c54.4,0,96.6-13.2,126.9-39.3c30.3-26.1,45.4-61.2,45.4-105
		c0-17.4-4.2-32.5-12.6-45.7c-8.4-13.2-18.7-23.8-31.2-31.9c-12.2-7.7-25.8-15.5-40.6-22.5c-14.8-7.1-28.3-13.2-40.6-18.7
		c-12.2-5.2-22.9-11.6-31.2-19.3c-8.4-7.7-12.6-16.1-12.6-25.4c0-13.8,5.5-24.8,16.4-33.2c11-8.4,26.4-12.2,45.7-12.2
		c14.2,0,27.7,2.9,40.9,9c13.2,6.1,21.9,11,25.8,14.5c4.2,3.5,7.4,6.8,9.7,9l61.2-53.1l-5.2-5.8c-3.2-3.9-8.4-8.7-16.1-14.2
		c-7.7-5.5-16.4-10.9-26.7-16.1c-10-5.2-22.9-10-38.6-13.8C5990.3,4419.4,5974.2,4417.4,5957.4,4417.4L5957.4,4417.4z"/>
	<path d="M6278.2,4435.8l-72.1,275h-45.7l44.4-275H6278.2 M6169.7,4765.6c10,0,18,2.9,24.5,9c6.1,6.1,9.3,12.9,9.3,21.6
		c0,10.3-4.2,19-12.6,26.7c-8.7,8.1-18.7,11.6-30,11.6c-10,0-18-2.9-24.5-9.3c-6.4-6.1-9.3-13.2-9.3-20.9c0-9.3,4.2-18,12.9-26.1
		C6148.4,4769.5,6158.4,4765.6,6169.7,4765.6 M6290.8,4426.1h-94.4l-47.7,294.4h64.7L6290.8,4426.1L6290.8,4426.1z M6169.7,4755.9
		c-13.8,0-26.1,5.2-36.4,15.1s-15.8,21.3-15.8,33.2c0,10.6,4.2,20,12.2,28s18.7,11.9,31.2,11.9c13.8,0,26.1-4.8,36.4-14.2
		c10.6-9.3,15.8-20.6,15.8-33.8c0-11-4.2-20.6-12.2-28.3C6192.5,4759.8,6182.2,4755.9,6169.7,4755.9L6169.7,4755.9z"/>
</g>
<g>
	<path d="M2767,5031c9.3,2.9,17.1,6.1,23.2,10c6.1,3.9,11.3,8.1,15.8,11.9c4.5,3.9,7.7,7.4,9.7,10l3.2,4.2l-31.9,26.1
		c-0.3-0.6-1-1.6-1.9-2.9c-1-1.3-2.9-3.5-6.1-6.4c-3.2-2.9-6.4-5.8-10.3-8.4s-8.7-4.5-15.1-6.8c-6.4-2.3-13.2-2.9-20-2.9
		c-21.6,0-40.3,7.7-56.7,23.2c-16.4,15.5-24.5,34.1-24.5,56c0,15.1,5.2,28,15.8,38.6c10.6,10.6,23.8,15.8,39.9,15.8
		c7.4,0,14.5-1,21.6-3.2c7.1-2.3,12.9-4.5,17.4-7.4c4.5-2.9,9-5.8,12.9-8.7s6.4-5.5,8.4-7.7l2.6-3.2l21.6,29
		c-0.6,1.3-1.9,2.6-3.5,4.5c-1.6,1.9-5.5,5.2-10.9,9.7c-5.8,4.5-11.6,8.7-18,12.2c-6.1,3.5-14.5,6.8-24.5,9.7
		c-10,2.9-20.3,4.5-30.9,4.5c-26.7,0-49.6-9-68.3-27.1c-18.7-18-27.7-39.3-27.7-63.4c0-33.5,12.6-61.8,38-85.7s55.4-35.4,90.5-35.4
		C2747.6,5026.8,2757.6,5028.4,2767,5031z"/>
	<path d="M2949.6,5185.5c10.3-9,16.7-20.6,19.6-34.1l25.4-120.5h43.5l-25.4,120.5c-5.5,25.4-17.1,46.1-35.1,62.5
		c-18,16.4-39.3,24.5-64.1,24.5c-22.5,0-41.5-6.8-56.7-20c-15.1-13.2-22.9-30.3-22.9-50.9c0-5.2,0.6-10.6,1.6-16.4l25.4-120.5h43.5
		l-25.4,120.5c-0.6,3.2-1.3,6.8-1.3,10.6c0,11,3.5,20,10.6,27.1c7.1,7.1,16.1,10.3,26.7,10.3
		C2928,5199.1,2939.3,5194.6,2949.6,5185.5z"/>
	<path d="M3264.9,5031h41.5l-42.8,202.9h-43.5l28.7-134.9l-83.1,82.8l-48-82.1l-28.3,134.3h-43.5l42.8-202.9h36.1l50.9,88.6
		L3264.9,5031z"/>
	<path d="M3439.8,5031c17.7,0,32.9,6.1,45.1,18.4s18.4,26.1,18.4,42.2c0,22.5-8.1,40.6-24.2,54.8c-16.1,14.2-36.1,21.3-59.6,21.3
		h-46.7l-14.2,66.7h-43.5l42.8-202.9h81.8V5031z M3393.7,5070.2l-12.6,58h42.5c9.7,0,18-3.2,24.8-9.7c6.8-6.4,10.3-14.2,10.3-23.5
		c0-6.8-2.6-12.2-7.4-17.4c-4.8-5.2-11.3-7.4-18.7-7.4L3393.7,5070.2L3393.7,5070.2z"/>
	<path d="M3512.6,5234.2l42.8-202.9h43.5l-34.8,163.9h94l-8.1,39H3512.6z"/>
	<path d="M3726.4,5031h43.5l-42.8,202.9h-43.5L3726.4,5031z"/>
	<path d="M3869.4,5194.2c7.4-4.2,10.9-11.3,10.9-20.3c0-5.5-2.9-10.3-8.7-14.5c-5.8-4.2-12.6-8.1-20.6-11.6s-16.1-7.1-24.5-11.3
		c-8.4-4.2-15.1-10-20.6-17.4c-5.5-7.4-8.7-16.1-8.7-26.1c0-19,7.1-35.1,21.3-47.7s33.5-18.7,58-18.7c8.4,0,16.4,1,24.2,2.9
		s14.2,4.2,19,6.8s9.3,5.2,13.2,8.1c3.9,2.9,6.4,5.2,8.1,7.1l2.6,2.9l-30.3,26.1c-1.3-1.3-2.6-2.6-4.8-4.5
		c-2.3-1.9-6.1-4.2-12.9-7.1c-6.8-2.9-13.2-4.5-20.3-4.5c-9.7,0-17.1,1.9-22.5,6.1s-8.1,9.3-8.1,16.4c0,4.5,1.9,8.7,6.1,12.6
		c4.2,3.9,9.3,7.1,15.5,9.7c6.1,2.6,12.9,5.8,20,9c7.1,3.2,13.8,7.1,20,11s11.3,9,15.5,15.8c4.2,6.8,6.1,14.2,6.1,22.5
		c0,21.6-7.4,39-22.2,51.9c-14.8,12.9-35.8,19.3-62.5,19.3c-9.3,0-18.4-1.3-27.4-3.5c-9-2.3-16.1-5.2-21.9-8.4
		c-5.8-3.2-10.9-6.4-15.1-9.7s-7.4-6.1-9.3-8.4l-2.9-3.5l30-25.1c1.3,1.6,3.2,3.5,5.8,5.8s8.1,5.5,16.4,9.3
		c8.4,3.9,17.1,5.8,26.1,5.8C3853.6,5200.7,3862,5198.4,3869.4,5194.2z"/>
	<path d="M4129,5031l-8.1,39.3h-58l-34.8,163.6h-43.5l34.8-163.6h-58l8.1-39.3H4129z"/>
	<path d="M4278.5,5194.9l-8.1,39h-152.3l42.8-202.9h149.4l-8.1,39.3h-106l-8.7,40.6h82.5l-8.4,39h-82.4l-9.3,45.1L4278.5,5194.9
		L4278.5,5194.9z"/>
	<path d="M4530.3,5194.9l-8.1,39h-152l42.8-202.9h149.4l-8.1,39.3h-106l-8.7,40.6h82.5l-8.4,39h-82.8l-9.3,45.1L4530.3,5194.9
		L4530.3,5194.9z"/>
	<path d="M4562.5,5234.2l42.8-202.9h43.5l-34.8,163.9h94l-8.1,39H4562.5z"/>
	<path d="M4835.6,5031h85.7c17.1,0,31.6,5.8,43.5,17.4c11.6,11.6,17.7,25.1,17.7,40.6c0,10-1.6,19.3-5.2,27.7
		c-3.5,8.4-7.7,15.1-12.6,20c-4.8,4.8-10,9-14.5,12.2c-4.5,3.2-9,5.5-12.6,6.8l-5.2,1.6l27.4,77h-45.4l-24.2-71.2h-38.6l-15.1,71.2
		h-43.5L4835.6,5031z M4927.8,5115.7c6.8-5.5,10.3-12.6,10.3-21.6c0-6.8-1.9-12.2-5.8-16.7s-9.3-7.1-15.8-7.1h-45.4l-11.6,53.8h44.8
		C4912.9,5124,4921,5121.1,4927.8,5115.7z"/>
	<path d="M5159,5194.9l-8.1,39h-152l42.8-202.9h149.4l-8.1,39.3h-106l-8.7,40.6h82.5l-8.4,39h-82.8l-9.3,45.1L5159,5194.9
		L5159,5194.9z"/>
	<path d="M5373.2,5031l-8.1,39.3h-58l-34.8,163.6h-43.5l34.8-163.6h-58l8.1-39.3H5373.2z"/>
	<path d="M5395.4,5062.2c24.8-23.5,53.5-35.4,86-35.4c30,0,54.4,9.3,73.4,27.7c19,18.4,28.7,40.9,28.7,67c0,20.6-5.8,39.6-17.1,58
		c-11.3,18-26.4,32.5-45.4,43.2c-18.7,10.6-38.6,16.1-59.9,16.1c-30,0-54.4-9.3-73.8-27.7c-19.3-18.4-29-40.9-29-67.3
		C5358,5112.8,5370.6,5085.7,5395.4,5062.2z M5426.3,5088.3c-15.1,15.1-22.9,32.5-22.9,52.5c0,16.7,5.5,30.6,16.7,41.5
		c11,11.3,25.4,16.7,42.8,16.7c19,0,36.4-7.4,51.5-22.2c15.1-14.8,22.9-32.5,22.9-53.1c0-16.7-5.5-30.6-16.7-41.5
		s-25.4-16.7-42.5-16.7C5458.9,5065.7,5441.5,5073.1,5426.3,5088.3z"/>
</g>
<g>
	<path d="M3519.9,5428.2c9.6,2.8,17.6,6.2,23.8,10.1c6.2,4,11.7,7.9,16.4,11.9s8.2,7.3,10.3,10.1l3.3,4.3l-27.7,27.7
		c-0.6-0.8-1.3-1.8-2.3-3.2s-3.2-3.7-6.7-7c-3.4-3.3-7.2-6.2-11.3-8.7c-4.1-2.5-9.4-4.8-16-7c-6.6-2.1-13.4-3.2-20.3-3.2
		c-19,0-34.9,6.4-47.6,19.1c-12.8,12.8-19.1,28.6-19.1,47.6c0,19,6.4,34.9,19.1,47.6c12.8,12.8,28.6,19.1,47.6,19.1
		c7.4,0,14.4-1,21.2-3.1c6.8-2,12.4-4.4,16.8-7.2c4.4-2.8,8.4-5.6,11.8-8.4c3.4-2.8,5.9-5.3,7.4-7.4l2.3-3l26.2,27.7
		c-0.8,1.1-1.9,2.6-3.5,4.5c-1.6,1.8-5,5.1-10.4,9.8c-5.3,4.7-11.1,8.8-17.2,12.3c-6.1,3.5-14.1,6.8-24,9.7s-20.1,4.4-30.7,4.4
		c-31,0-57.2-10.4-78.5-31.1c-21.3-20.8-32-45.7-32-74.9s10.7-54.2,32-74.9c21.3-20.7,47.5-31,78.5-31
		C3500.1,5424,3510.3,5425.4,3519.9,5428.2z"/>
	<path d="M3686.6,5587.8l-16.9,48.2h-48.8l80.5-212.1h46.7l80.5,212.1h-48.8l-16.9-48.2H3686.6z M3724.7,5475.2l-24.8,69.2h49.5
		L3724.7,5475.2z"/>
	<path d="M3876.6,5423.9h86.3c19.3,0,35.3,6.7,47.9,20.2c12.6,13.5,19,29.9,19,49.5c0,8.5-1.2,16.4-3.7,23.8s-5.3,13.4-8.6,17.9
		c-3.3,4.5-6.7,8.4-10.1,11.7c-3.4,3.3-6.4,5.5-8.8,6.7l-3.5,2.1l41.7,80.3h-42.9l-38.4-72.3h-37v72.3h-41.9L3876.6,5423.9z
		 M3985.7,5470.9c-5.4-5.6-12.3-8.4-20.5-8.4h-46.7v57.8h46.7c8.2,0,15.1-2.7,20.5-8.2c5.4-5.4,8.2-12.1,8.2-20.1
		C3993.9,5483.6,3991.1,5476.5,3985.7,5470.9z"/>
	<path d="M4277.2,5520.6v76.1c-0.7,0.9-1.9,2.3-3.5,4.2c-1.6,1.8-5.1,5-10.5,9.5c-5.4,4.5-11.1,8.5-17.2,11.9
		c-6,3.5-14,6.6-23.7,9.4c-9.8,2.8-19.8,4.3-30.2,4.3c-29.8,0-55-10.4-75.5-31.1c-20.5-20.8-30.7-45.7-30.7-74.9
		s10.2-54.2,30.7-74.9c20.5-20.7,45.7-31,75.5-31c10.3,0,20,1.4,29.3,4.2c9.3,2.8,16.9,6.2,22.8,10.1c6,4,11.2,7.9,15.8,11.9
		c4.6,4,7.9,7.3,9.9,10.1l3.1,4.3l-26.6,27.7c-0.5-0.8-1.3-1.8-2.2-3.2s-3.1-3.7-6.4-7c-3.3-3.3-6.9-6.2-10.8-8.7
		c-3.9-2.5-9-4.8-15.4-7c-6.4-2.1-12.9-3.2-19.5-3.2c-18.3,0-33.5,6.4-45.8,19.1c-12.3,12.8-18.4,28.6-18.4,47.6
		c0,19,6.1,34.9,18.4,47.6c12.3,12.8,27.5,19.1,45.8,19.1c8.7,0,16.7-1.3,23.9-4c7.2-2.7,12.2-5.4,15.1-8.2l4.2-3.7v-27.6h-37.2
		v-32.6H4277.2z"/>
	<path d="M4390,5587.8l-16.9,48.2h-48.8l80.5-212.1h46.7l80.5,212.1h-48.8l-16.9-48.2H4390z M4428.2,5475.2l-24.8,69.2h49.5
		L4428.2,5475.2z"/>
	<path d="M4758.8,5423.9h38.7V5636H4751v-140.5l-65.2,86.2l-65-85.7V5636h-41.9v-212.1h39.4l69.9,92.4L4758.8,5423.9z"/>
	<path d="M4876,5455.1c21.3-20.7,47.5-31,78.4-31c31,0,57.1,10.3,78.4,31c21.3,20.7,32,45.7,32,74.9s-10.7,54.2-32,74.9
		c-21.3,20.7-47.5,31.1-78.4,31.1c-31,0-57.1-10.4-78.4-31.1c-21.3-20.8-32-45.7-32-74.9S4854.7,5475.8,4876,5455.1z M4908.1,5577.4
		c12.7,12.9,28.1,19.3,46.3,19.3c18.2,0,33.6-6.4,46.3-19.3c12.7-12.9,19-28.7,19-47.4s-6.3-34.6-19-47.5
		c-12.7-12.9-28.1-19.4-46.3-19.4c-18.2,0-33.6,6.5-46.3,19.4c-12.7,12.9-19,28.7-19,47.5S4895.4,5564.6,4908.1,5577.4z"/>
	<path d="M5205.8,5555.6c-6.9-4.2-15.2-7.6-25.1-10.4c-9.9-2.8-19.7-6.1-29.5-9.9c-9.8-3.8-18.1-10-25-18.7
		c-6.9-8.7-10.4-19.7-10.4-33c0-16.4,6.6-30.5,19.8-42.1c13.2-11.6,30.3-17.4,51.4-17.4c8.3,0,16.4,1,24.1,2.9
		c7.8,1.9,14.1,4.2,19.1,6.8c5,2.6,9.3,5.2,13,7.9s6.4,5,8,7l2.6,2.8l-26.1,27.7c-1.1-1.3-2.7-3-4.7-4.9c-2-1.9-6.3-4.5-12.8-7.7
		c-6.5-3.2-13.2-4.8-20.1-4.8c-8.3,0-15,2.1-20.1,6.4c-5.1,4.3-7.6,9.4-7.6,15.5c0,6.8,3.4,12.3,10.3,16.4c6.9,4.1,15.2,7.6,25,10.4
		c9.8,2.8,19.6,6.1,29.5,9.9c9.9,3.8,18.3,10,25.2,18.7c6.9,8.7,10.4,19.7,10.4,33c0,18.8-6.8,34.2-20.5,46.1
		c-13.7,11.9-32.5,17.9-56.5,17.9c-9.5,0-18.6-1.2-27.4-3.5c-8.8-2.3-16.1-5.1-21.8-8.3c-5.7-3.2-10.8-6.5-15.1-9.8
		c-4.4-3.3-7.5-6.1-9.4-8.4l-3.3-3.5l26.2-26.1c1.3,1.5,3.2,3.5,5.6,5.9c2.4,2.4,7.8,5.6,16.1,9.7c8.3,4.1,17,6.1,26.1,6.1
		c10.5,0,18.7-2.5,24.6-7.4c5.9-4.9,8.9-11.2,8.9-18.7C5216.1,5565.2,5212.7,5559.8,5205.8,5555.6z"/>
	<g>
		<polygon points="3239.4,5453.8 3159.6,5374 3093.8,5374 3239.4,5519.6 		"/>
		<polygon points="2962.3,5374 3239.4,5651.2 3239.4,5585.4 3028.1,5374 		"/>
		<polygon points="2929.4,5604.2 3009.2,5684 3075,5684 2929.4,5538.5 		"/>
		<polygon points="2929.4,5472.7 3140.8,5684 3206.6,5684 2929.4,5406.9 		"/>
	</g>
</g>
<g>
	<g>
		<path class="st0" d="M4097.2,2383.6h34.6v568.1h-34.6V2383.6z"/>
		<path class="st1" d="M4320.9,3203.7c48,83.3,95.9,166.3,144.3,249.6l353,611.3H3406l353-611.3c48-83.3,95.9-166.3,144.3-249.6
			H4320.9z"/>
		<path class="st2" d="M3903.4,3203.7l174.2,123.1c24.4,15.3,47.6,15.7,69.6,0l173.8-123.1c-61.3-106.5-122.7-212.7-184.4-319.2
			c-13.8-24-35.8-23.2-49.1,0C4026,2991,3964.7,3097.2,3903.4,3203.7z"/>
		<path class="st3" d="M5006.9,4012.4c14.9,26.3,0,52.3-30.3,52.3h-645.6c-29.9,0-44.8-25.6-30.3-51.5l161.6-279.9l53.5-92.8h276
			C4863.4,3764.4,4935,3888.6,5006.9,4012.4L5006.9,4012.4z"/>
		<path class="st3" d="M3562.9,3751c50.3,87.3,100.6,174.6,151,261.8c14.9,25.9-0.4,51.9-30.3,51.9h-440.7
			c-30.3,0-45.2-25.9-30.3-52.3c50.3-87.3,100.6-174.6,151-261.4L3562.9,3751z"/>
		<path class="st4" d="M4514.8,2499.1h-183.3c-10.2-1.6-18.1-9.4-19.7-19.7v-158h202.9c5.9,0.4,7.5,3.5,4.7,9l-28.4,79.8l28.4,79.8
			C4521.8,2492.8,4520.3,2499.1,4514.8,2499.1L4514.8,2499.1z"/>
		<path class="st5" d="M4311.9,2475.1v-153.7H4465v114.4c-2.8,20.4-18.9,36.6-39.3,39.3H4311.9L4311.9,2475.1z"/>
		<path class="st4" d="M4428.2,2462.6h-311.4c-10.2-1.6-18.1-9.4-19.7-19.7v-138.4c1.6-10.2,9.4-18.5,19.7-19.7h311.4
			c10.2,1.6,18.1,9.4,19.7,19.7V2443C4446.7,2453.2,4438.4,2461.5,4428.2,2462.6z"/>
		<g>
			<path class="st2" d="M4515.9,3640.5l112.4,79.4c18.1,11.8,35.4,12.2,51.5,0l112.4-79.4c-41.3-71.2-82.6-142.7-123.4-213.9
				c-8.3-14.2-21.2-13.8-29.1,0C4598.1,3497.8,4557.2,3569,4515.9,3640.5z"/>
			<path class="st2" d="M3363.6,3751l81.4,57.8c12.2,8.7,24.4,8.7,36.6,0l81.4-57.8c-28.3-49.1-57-98.3-85.3-147.4
				c-8.3-14.2-21.2-13.8-29.1,0C3420.2,3652.7,3391.9,3701.8,3363.6,3751z"/>
			<path class="st2" d="M3465.4,2883.7L3465.4,2883.7c44.8,0,81.4,36.6,81.4,81.4c0,44.8-36.6,81.4-81.4,81.4h-283.5
				c-44.8,0-81.4-36.6-81.4-81.4c0-44.8,36.6-81.4,81.4-81.4c0-57.4,46.4-104.2,104.2-104.2c36.2,0,68,18.5,86.5,46.4
				c9.4-6.3,21.2-10.2,33.4-10.2c33,0,59.8,26.7,59.8,59.8C3465.8,2878.2,3465.8,2880.9,3465.4,2883.7z"/>
		</g>
		<path class="st6" d="M3503.1,2921.1c0,44.8-36.6,81.4-81.4,81.4h-283.5c-11,0-21.6-2.4-31.1-6.3c12.2,29.5,41.3,50.3,75.1,50.3
			h283.5c44.8,0,81.4-36.6,81.4-81.4c0-33.8-20.8-62.9-50.3-75.1C3500.8,2899.4,3503.1,2910,3503.1,2921.1z"/>
		<path class="st2" d="M5020.3,2904.1L5020.3,2904.1c39.3,0,71.2,32.2,71.2,71.2c0,39.3-32.2,71.2-71.2,71.2h-248.1
			c-39.3,0-71.2-32.2-71.2-71.2c0-39.3,32.2-71.2,71.2-71.2c0-50.3,40.9-91.2,91.2-91.2c31.5,0,59.4,16.1,75.9,40.5
			c8.3-5.5,18.5-9,29.5-9c29.1,0,52.3,23.6,52.3,52.3C5020.7,2899.4,5020.7,2901.8,5020.3,2904.1z"/>
		<path class="st6" d="M5052.9,2936.8c0,39.3-31.8,71.2-71.2,71.2h-248.1c-9.8,0-18.9-2-27.5-5.5c10.6,25.6,36.2,44,65.7,44h248.1
			c39.3,0,71.2-32.2,71.2-71.2c0-29.5-18.1-55-44-65.7C5051,2917.9,5052.9,2926.9,5052.9,2936.8z"/>
		<path class="st0" d="M4375.5,3453.4l124.2,215.1l16.1-27.9l28.7-49.5l-79.4-137.6l-144.3-249.6l-63.3,44.8L4375.5,3453.4z"/>
		<path class="st6" d="M4134.9,3036.6l122.3,211.9l63.3-44.8l-181.6-314.5l-2.4-4.3l0,0c-7.1-11.8-15.7-17.7-24.4-17.7
			c-9,0-18.1,5.9-24.8,17.7l-2.4,4.3l-17.3,30.3l17.3,30.3l27.1,47.2L4134.9,3036.6z"/>
		<path class="st7" d="M4728.6,3685.3c62.9,108.9,125.8,218.2,189.1,327.1c14.9,26.3,0,52.3-30.3,52.3h89.2
			c30.3,0,45.2-25.9,30.3-52.3c-71.6-123.8-143.1-248.1-214.7-371.9L4728.6,3685.3z"/>
		<path class="st6" d="M4609.1,3478.9c39.7,68.8,79.4,137.6,119.1,206.4l63.3-44.8c-41.3-71.2-82.2-142.7-123.4-213.9
			c-8.3-14.2-21.2-13.8-29.1,0L4609.1,3478.9z"/>
		<path class="st7" d="M3530.3,3849.3l94.4,163.6c14.9,25.9-0.4,51.9-30.3,51.9h89.2c29.9,0,45.2-25.9,30.3-51.9l-139.2-241
			l-12.2-20.8l-63.7,44.8L3530.3,3849.3z"/>
		<path class="st6" d="M3418.6,3655.8l81,140.4l63.7-44.8L3478,3604c-8.3-14.2-21.2-13.8-29.1,0L3418.6,3655.8z"/>
	</g>
	<g>
		<g>
			<polygon class="st8" points="4340.2,2348.9 4309.1,2317.8 4283.5,2317.8 4340.2,2374.5 			"/>
			<polygon class="st8" points="4232.2,2317.8 4340.2,2425.8 4340.2,2400.2 4257.8,2317.8 			"/>
			<polygon class="st8" points="4219.4,2407.5 4250.5,2438.6 4276.1,2438.6 4219.4,2381.9 			"/>
			<polygon class="st8" points="4219.4,2356.2 4301.8,2438.6 4327.4,2438.6 4219.4,2330.6 			"/>
		</g>
	</g>
</g>
</svg>
